<svg xmlns="http://www.w3.org/2000/svg" xmlns:xlink="http://www.w3.org/1999/xlink" fill="none" version="1.1" width="30" height="30" viewBox="0 0 30 30"><defs><clipPath id="master_svg0_3_2196"><rect x="0" y="0" width="30" height="30" rx="0"/></clipPath></defs><g clip-path="url(#master_svg0_3_2196)"><path d="M8.702465100000001,13.8869963C8.702465100000001,13.8869963,11.015845299999999,21.352221,11.015845299999999,21.352221C11.1531692,21.797588,11.6179576,22.052084,12.061619799999999,21.914232C12.061619799999999,21.914232,12.0721831,21.914232,12.0721831,21.914232C12.515845299999999,21.776381,12.7693672,21.2992,12.6320429,20.843227C12.6320429,20.843227,10.8257041,15.000418,10.8257041,15.000418C12.5158448,14.332365,13.8045769,14.841358,15.378521,15.477599C15.378521,15.477599,15.832747,15.657866,15.832747,15.657866C16.360915,15.859343,16.920775,15.95478,17.491198,15.944176C19.107394,15.84874,20.681339,15.371557,22.075705,14.565653C22.794014,14.00364,23.18486,13.1235085,23.142607,12.2115631C23.142607,12.2115631,23.142607,5.8173445,23.142607,5.8173445C23.205988,5.1386878,22.84683,4.50244719,22.244719,4.19493093C21.621479,3.919226639,20.903168,4.025266767,20.385562999999998,4.44942719C19.656689999999998,5.1492919,18.737676999999998,5.6052643,17.755282,5.7643244C17.089789,5.7643244,16.75176,5.6264724,15.473591,4.96902376C15.473591,4.96902376,14.459507,4.46003118,14.459507,4.46003118C12.0193663,3.314798,9.146127199999999,4.56607127,7.5933101,5.4143921C6.8433101,5.8385525000000005,6.4947181,6.7292893,6.769366,7.5457981C7.2130279999999996,9.019755400000001,8.1742961,12.1797514,8.7341552,13.9400167C8.7341552,13.9400167,8.702465100000001,13.8869963,8.702465100000001,13.8869963ZM15.072184,18.733029000000002C14.6073952,18.722425,14.2271128,19.10417,14.2271128,19.560143C14.2271128,19.560143,14.2271128,19.570745000000002,14.2271128,19.570745000000002C14.2271128,20.037321,14.6073952,20.419067,15.072184,20.419067C19.973592,20.419067,23.121479,21.277992,23.797535,21.850609C23.132042,22.423225,19.973592,23.292753,15.072184,23.292753C10.1707754,23.292753,7.044014000000001,22.43383,6.3573943,21.861214C7.0017605,21.458261,7.7306337,21.182558,8.4806337,21.076517C8.9242959,20.928061,9.167253500000001,20.440275,9.0193663,19.994906C8.8926058,19.602558000000002,8.5017605,19.358665000000002,8.0897887,19.42229C5.7552816,19.963095,4.625,20.769001,4.625,21.861214C4.625,24.915169,14.047534,25,15.124999,25C16.202464,25,25.625,24.915169,25.625,21.861214C25.625,18.807259000000002,16.139085,18.733029000000002,15.072184,18.733029000000002Z" fill="#DEDEDE" fill-opacity="1"/></g></svg>