<svg xmlns="http://www.w3.org/2000/svg" xmlns:xlink="http://www.w3.org/1999/xlink" fill="none" version="1.1" width="206" height="136" viewBox="0 0 206 136"><defs><filter id="master_svg0_3_5486" filterUnits="objectBoundingBox" color-interpolation-filters="sRGB" x="-0.12048192771084337" y="-0.16666666666666666" width="1.2409638554216869" height="1.4166666666666667"><feFlood flood-opacity="0" result="BackgroundImageFix"/><feColorMatrix in="SourceAlpha" type="matrix" values="0 0 0 0 0 0 0 0 0 0 0 0 0 0 0 0 0 0 127 0"/><feOffset dy="4" dx="0"/><feGaussianBlur stdDeviation="5"/><feColorMatrix type="matrix" values="0 0 0 0 0.6784660816192627 0 0 0 0 0.7094395160675049 0 0 0 0 0.8333333134651184 0 0 0 0.30000001192092896 0"/><feBlend mode="normal" in2="BackgroundImageFix" result="effect1_dropShadow"/><feBlend mode="normal" in="SourceGraphic" in2="effect1_dropShadow" result="shape"/></filter><linearGradient x1="0.5" y1="0" x2="0.5" y2="1" id="master_svg1_3_5857"><stop offset="49.855104088783264%" stop-color="#FFFFFF" stop-opacity="1"/><stop offset="100%" stop-color="#F6FFFB" stop-opacity="1"/></linearGradient><linearGradient x1="0.5" y1="0" x2="0.5" y2="1" id="master_svg2_3_4700"><stop offset="0%" stop-color="#FFFFFF" stop-opacity="1"/><stop offset="100%" stop-color="#FFFFFF" stop-opacity="1"/></linearGradient></defs><g style="opacity:0.8999999761581421;" filter="url(#master_svg0_3_5486)"><path d="M27.999361,16C56.07365,16,149.92635,16,178.00064,16C182.41891,16,186,19.5397902,186,23.9580688C186,42.025936,186,85.97406,186,104.041931C186,108.460213,182.41891,112,178.00064,112C149.92635,112,56.07365,112,27.999361,112C23.5810823,112,20,108.460213,20,104.041931C20,85.974068,20,42.025938,20,23.9580712C20,19.5397902,23.5810823,16,27.999361,16" fill="url(#master_svg1_3_5857)" fill-opacity="1"/><path d="M27.999361,16L178.00064,16C182.41891,16,186,19.5397902,186,23.9580688L186,104.041931C186,108.460213,182.41891,112,178.00064,112L27.999361,112C23.5810823,112,20,108.460213,20,104.041931L20,23.9580712C20,19.5397902,23.5810823,16,27.999361,16ZM27.999361,17.0000007Q25.0938044,17.0000004,23.0473981,19.0318131Q21,21.0646105,21,23.958071699999998L21,104.041931Q21,106.935394,23.0473981,108.968193Q25.0938025,111,27.999361,111L178.00064,111Q180.9062,111,182.95261,108.968193Q185,106.935394,185,104.041931L185,23.9580688Q185,21.0646057,182.95261,19.0318127Q180.9062,17,178.00064,17L103.000023,17L27.999361,17.0000007Z" fill-rule="evenodd" fill="url(#master_svg2_3_4700)" fill-opacity="1"/></g></svg>